<svg version="1.1" viewBox="0.0 0.0 220.18635170603673 213.21784776902888" fill="none" stroke="none" stroke-linecap="square" stroke-miterlimit="10" xmlns:xlink="http://www.w3.org/1999/xlink" xmlns="http://www.w3.org/2000/svg"><clipPath id="p.0"><path d="m0 0l220.18636 0l0 213.21785l-220.18636 0l0 -213.21785z" clip-rule="nonzero"/></clipPath><g clip-path="url(#p.0)"><path fill="#000000" fill-opacity="0.0" d="m0 0l220.18636 0l0 213.21785l-220.18636 0z" fill-rule="evenodd"/><path fill="#ffffff" d="m1.7454069 106.608925l0 0c0 -58.229076 48.50836 -105.433075 108.34646 -105.433075l0 0c28.735268 0 56.293617 11.108095 76.61251 30.88063c20.318909 19.772537 31.733948 46.589848 31.733948 74.552444l0 0c0 58.229073 -48.50836 105.43307 -108.34646 105.43307l0 0c-59.838097 0 -108.34646 -47.203995 -108.34646 -105.43307z" fill-rule="evenodd"/><path stroke="#b7b7b7" stroke-width="1.0" stroke-linejoin="round" stroke-linecap="butt" d="m1.7454069 106.608925l0 0c0 -58.229076 48.50836 -105.433075 108.34646 -105.433075l0 0c28.735268 0 56.293617 11.108095 76.61251 30.88063c20.318909 19.772537 31.733948 46.589848 31.733948 74.552444l0 0c0 58.229073 -48.50836 105.43307 -108.34646 105.43307l0 0c-59.838097 0 -108.34646 -47.203995 -108.34646 -105.43307z" fill-rule="evenodd"/><path fill="#000000" d="m24.284788 41.484417c-7.4037724 -3.4624863 -11.5588665 -11.46611 -10.130599 -19.513762c1.4282675 -8.047653 8.083756 -14.132655 16.226856 -14.835941c8.143099 -0.7032857 15.743326 4.1505094 18.530237 11.834116z" fill-rule="evenodd"/><path stroke="#000000" stroke-width="1.0" stroke-linejoin="round" stroke-linecap="butt" d="m24.284788 41.484417c-7.4037724 -3.4624863 -11.5588665 -11.46611 -10.130599 -19.513762c1.4282675 -8.047653 8.083756 -14.132655 16.226856 -14.835941c8.143099 -0.7032857 15.743326 4.1505094 18.530237 11.834116z" fill-rule="evenodd"/><path fill="#000000" d="m171.86465 18.815878c2.8576813 -7.6658535 10.507935 -12.4565735 18.652206 -11.68033c8.144272 0.77624273 14.751785 6.925893 16.109879 14.993559c1.3580933 8.067665 -2.8718567 16.041677 -10.313126 19.441568z" fill-rule="evenodd"/><path stroke="#000000" stroke-width="1.0" stroke-linejoin="round" stroke-linecap="butt" d="m171.86465 18.815878c2.8576813 -7.6658535 10.507935 -12.4565735 18.652206 -11.68033c8.144272 0.77624273 14.751785 6.925893 16.109879 14.993559c1.3580933 8.067665 -2.8718567 16.041677 -10.313126 19.441568z" fill-rule="evenodd"/><path fill="#000000" d="m143.87138 150.64568l-34.513885 22.204712l-33.045166 -22.204712z" fill-rule="evenodd"/><path stroke="#000000" stroke-width="1.0" stroke-linejoin="round" stroke-linecap="butt" d="m143.87138 150.64568l-34.513885 22.204712l-33.045166 -22.204712z" fill-rule="evenodd"/><path fill="#000000" d="m90.67085 80.67692l-20.021667 41.216103l0 0c-2.6228867 5.3994217 -10.191124 7.1316833 -16.904125 3.8691177c-6.7129974 -3.2625732 -10.028687 -10.2845 -7.405792 -15.683922l20.021664 -41.216103l0 0c2.6228943 -5.399418 10.191132 -7.1316795 16.904129 -3.86911c6.7129974 3.2625656 10.028687 10.2844925 7.405792 15.683914z" fill-rule="evenodd"/><path stroke="#000000" stroke-width="1.0" stroke-linejoin="round" stroke-linecap="butt" d="m90.67085 80.67692l-20.021667 41.216103l0 0c-2.6228867 5.3994217 -10.191124 7.1316833 -16.904125 3.8691177c-6.7129974 -3.2625732 -10.028687 -10.2845 -7.405792 -15.683922l20.021664 -41.216103l0 0c2.6228943 -5.399418 10.191132 -7.1316795 16.904129 -3.86911c6.7129974 3.2625656 10.028687 10.2844925 7.405792 15.683914z" fill-rule="evenodd"/><path fill="#000000" d="m147.39264 121.92397l-20.729164 -40.86235l0 0c-2.7155762 -5.3530807 0.4792862 -12.430084 7.1359177 -15.806938c6.6566467 -3.3768501 14.2543335 -1.7747993 16.96991 3.5782776l20.729172 40.86235l0 0c2.7155762 5.353073 -0.47927856 12.430084 -7.1359253 15.806931c-6.6566467 3.3768616 -14.254318 1.7748032 -16.96991 -3.57827z" fill-rule="evenodd"/><path stroke="#000000" stroke-width="1.0" stroke-linejoin="round" stroke-linecap="butt" d="m147.39264 121.92397l-20.729164 -40.86235l0 0c-2.7155762 -5.3530807 0.4792862 -12.430084 7.1359177 -15.806938c6.6566467 -3.3768501 14.2543335 -1.7747993 16.96991 3.5782776l20.729172 40.86235l0 0c2.7155762 5.353073 -0.47927856 12.430084 -7.1359253 15.806931c-6.6566467 3.3768616 -14.254318 1.7748032 -16.96991 -3.57827z" fill-rule="evenodd"/><path fill="#000000" d="m41.59055 111.2126l0 0c0 -8.827858 6.3596725 -15.984253 14.204727 -15.984253l0 0c3.7673264 0 7.380352 1.6840515 10.044254 4.681679c2.6639023 2.9976273 4.160469 7.063286 4.160469 11.302574l0 0c0 8.827858 -6.3596725 15.984253 -14.204723 15.984253l0 0c-7.8450546 0 -14.204727 -7.156395 -14.204727 -15.984253z" fill-rule="evenodd"/><path stroke="#000000" stroke-width="1.0" stroke-linejoin="round" stroke-linecap="butt" d="m41.59055 111.2126l0 0c0 -8.827858 6.3596725 -15.984253 14.204727 -15.984253l0 0c3.7673264 0 7.380352 1.6840515 10.044254 4.681679c2.6639023 2.9976273 4.160469 7.063286 4.160469 11.302574l0 0c0 8.827858 -6.3596725 15.984253 -14.204723 15.984253l0 0c-7.8450546 0 -14.204727 -7.156395 -14.204727 -15.984253z" fill-rule="evenodd"/><path fill="#ffffff" d="m43.769028 84.63517l0 0c0 -6.131668 6.3596725 -11.102364 14.204727 -11.102364l0 0c7.8450546 0 14.20472 4.9706955 14.20472 11.102364l0 0c0 6.131668 -6.359665 11.102364 -14.20472 11.102364l0 0c-7.8450546 0 -14.204727 -4.9706955 -14.204727 -11.102364z" fill-rule="evenodd"/><path stroke="#ffffff" stroke-width="1.0" stroke-linejoin="round" stroke-linecap="butt" d="m43.769028 84.63517l0 0c0 -6.131668 6.3596725 -11.102364 14.204727 -11.102364l0 0c7.8450546 0 14.20472 4.9706955 14.20472 11.102364l0 0c0 6.131668 -6.359665 11.102364 -14.20472 11.102364l0 0c-7.8450546 0 -14.204727 -4.9706955 -14.204727 -11.102364z" fill-rule="evenodd"/><path fill="#ffffff" d="m76.31233 111.2126l0 0c0 -17.203453 15.123611 -31.149605 33.779533 -31.149605l0 0c18.655922 0 33.77952 13.946152 33.77952 31.149605l0 0c0 17.203445 -15.123596 31.149597 -33.77952 31.149597l0 0c-18.655922 0 -33.779533 -13.946152 -33.779533 -31.149597z" fill-rule="evenodd"/><path stroke="#ffffff" stroke-width="1.0" stroke-linejoin="round" stroke-linecap="butt" d="m76.31233 111.2126l0 0c0 -17.203453 15.123611 -31.149605 33.779533 -31.149605l0 0c18.655922 0 33.77952 13.946152 33.77952 31.149605l0 0c0 17.203445 -15.123596 31.149597 -33.77952 31.149597l0 0c-18.655922 0 -33.779533 -13.946152 -33.779533 -31.149597z" fill-rule="evenodd"/><path fill="#000000" d="m150.18242 111.2126l0 0c0 -8.827858 6.359665 -15.984253 14.204727 -15.984253l0 0c3.7673187 0 7.3803406 1.6840515 10.0442505 4.681679c2.6638947 2.9976273 4.1604614 7.063286 4.1604614 11.302574l0 0c0 8.827858 -6.359665 15.984253 -14.204712 15.984253l0 0c-7.8450623 0 -14.204727 -7.156395 -14.204727 -15.984253z" fill-rule="evenodd"/><path stroke="#000000" stroke-width="1.0" stroke-linejoin="round" stroke-linecap="butt" d="m150.18242 111.2126l0 0c0 -8.827858 6.359665 -15.984253 14.204727 -15.984253l0 0c3.7673187 0 7.3803406 1.6840515 10.0442505 4.681679c2.6638947 2.9976273 4.1604614 7.063286 4.1604614 11.302574l0 0c0 8.827858 -6.359665 15.984253 -14.204712 15.984253l0 0c-7.8450623 0 -14.204727 -7.156395 -14.204727 -15.984253z" fill-rule="evenodd"/><path fill="#ffffff" d="m148.00525 84.63517l0 0c0 -6.131668 6.359665 -11.102364 14.204727 -11.102364l0 0c7.845047 0 14.204727 4.9706955 14.204727 11.102364l0 0c0 6.131668 -6.35968 11.102364 -14.204727 11.102364l0 0c-7.8450623 0 -14.204727 -4.9706955 -14.204727 -11.102364z" fill-rule="evenodd"/><path stroke="#ffffff" stroke-width="1.0" stroke-linejoin="round" stroke-linecap="butt" d="m148.00525 84.63517l0 0c0 -6.131668 6.359665 -11.102364 14.204727 -11.102364l0 0c7.845047 0 14.204727 4.9706955 14.204727 11.102364l0 0c0 6.131668 -6.35968 11.102364 -14.204727 11.102364l0 0c-7.8450623 0 -14.204727 -4.9706955 -14.204727 -11.102364z" fill-rule="evenodd"/></g></svg>